<?xml version="1.0" standalone="no"?>
<svg version="1.0" xmlns="http://www.w3.org/2000/svg" width="156.000000pt"
	height="156.000000pt" viewBox="0 0 156.000000 156.000000"
	preserveAspectRatio="xMidYMid meet">
	<g transform="translate(0.000000,156.000000) scale(0.100000,-0.100000)"
		fill="#000000" stroke="none">
		<path d="M135 1471 c-11 -5 -31 -21 -45 -36 -23 -24 -25 -36 -28 -133 -3 -100
0 -120 42 -289 25 -100 46 -185 46 -188 0 -3 -15 -5 -32 -5 -18 0 -39 -4 -46
-8 -9 -7 -12 -90 -10 -383 l3 -374 710 0 710 0 3 374 c2 293 -1 376 -10 383
-7 4 -28 8 -45 8 -18 0 -33 2 -33 5 0 3 21 88 46 188 42 170 45 189 42 289 -3
106 -3 108 -36 140 l-32 33 -633 2 c-347 1 -641 -2 -652 -6z m1280 -66 c22
-21 25 -33 25 -100 l0 -75 -255 0 -254 0 -3 73 -3 72 -150 0 -150 0 -3 -72 -3
-73 -254 0 -255 0 0 75 c0 67 3 79 25 100 l24 25 616 0 616 0 24 -25z m-537
-127 l3 -48 -105 0 -106 0 0 43 c0 24 3 47 7 51 4 4 50 5 103 4 l95 -3 3 -47z
m-176 -155 l3 -48 70 0 70 0 3 48 3 47 290 0 c272 0 290 -1 286 -17 -3 -10
-20 -76 -37 -148 -17 -71 -33 -136 -36 -144 -3 -9 -20 1 -53 32 -94 88 -165
105 -275 66 -64 -22 -95 -20 -158 12 -54 27 -133 25 -200 -6 -64 -30 -92 -31
-158 -5 -103 41 -197 17 -269 -68 -28 -32 -41 -42 -45 -32 -5 18 -61 243 -70
283 l-6 27 289 0 290 0 3 -47z m152 -204 c59 -31 121 -35 186 -10 93 36 146
24 215 -48 l39 -41 -524 0 -524 0 39 41 c71 73 125 86 206 49 61 -27 132 -26
194 5 61 30 118 32 169 4z m-234 -329 l5 -175 150 0 150 0 5 175 5 175 250 0
250 0 0 -230 0 -230 -46 -5 c-49 -6 -109 -44 -131 -83 -7 -12 -15 -42 -18 -67
l-5 -45 -460 0 -460 0 -5 45 c-3 25 -11 55 -18 67 -21 38 -78 74 -129 81 l-48
7 -3 220 c-1 121 0 225 3 232 3 11 57 13 252 11 l248 -3 5 -175z m244 174 c14
-5 16 -28 16 -155 l0 -149 -105 0 -105 0 0 149 c0 110 3 151 13 154 18 8 162
8 181 1z m-664 -530 c35 -21 60 -64 60 -103 l0 -31 -75 0 -75 0 0 75 0 75 31
0 c17 0 43 -7 59 -16z m1240 -59 l0 -75 -75 0 -75 0 0 33 c0 62 54 116 118
117 l32 0 0 -75z" />
		<path d="M720 690 c-28 -28 -26 -75 4 -105 14 -14 26 -35 28 -47 4 -32 42 -32
46 0 2 12 14 33 28 47 49 50 19 125 -51 125 -22 0 -43 -8 -55 -20z" />
	</g>
</svg>